HIERARCHY
ROOT Hips
{
	OFFSET 0.000000 0.000000 0.000000
	CHANNELS 6 Xposition Yposition Zposition Zrotation Yrotation Xrotation 
	JOINT LeftUpLeg_virtual
	{
		OFFSET 0.000000 0.000000 0.000000
		CHANNELS 3 Zrotation Yrotation Xrotation
		JOINT LeftUpLeg
		{
			OFFSET 8.479694 -4.795517 -0.379053
			CHANNELS 3 Zrotation Yrotation Xrotation
			JOINT LeftLeg
			{
				OFFSET 0.485052 -32.551468 0.112863
				CHANNELS 3 Zrotation Yrotation Xrotation
				JOINT LeftFoot
				{
					OFFSET 0.438033 -32.635670 -3.012641
					CHANNELS 3 Zrotation Yrotation Xrotation
					JOINT LeftToeBase
					{
						OFFSET 0.970169 -13.225353 11.864223
						CHANNELS 3 Zrotation Yrotation Xrotation
						End Site
						{
							OFFSET 0.000000 0.000000 0.000000
						}
					}
				}
			}
		}
	}
	JOINT RightUpLeg_virtual
	{
		OFFSET 0.000000 0.000000 0.000000
		CHANNELS 3 Zrotation Yrotation Xrotation
		JOINT RightUpLeg
		{
			OFFSET -8.479694 -4.795517 -0.379053
			CHANNELS 3 Zrotation Yrotation Xrotation
			JOINT RightLeg
			{
				OFFSET -0.484100 -32.551483 0.112903
				CHANNELS 3 Zrotation Yrotation Xrotation
				JOINT RightFoot
				{
					OFFSET -0.438985 -32.635651 -3.012681
					CHANNELS 3 Zrotation Yrotation Xrotation
					JOINT RightToeBase
					{
						OFFSET -0.970169 -13.225354 11.864223
						CHANNELS 3 Zrotation Yrotation Xrotation
						End Site
						{
							OFFSET 0.000000 0.000000 0.000000
						}
					}
				}
			}
		}
	}
	JOINT Spine_virtual
	{
		OFFSET 0.000000 0.000000 0.000000
		CHANNELS 3 Zrotation Yrotation Xrotation
		JOINT Spine
		{
			OFFSET 0.000000 7.722015 1.166203
			CHANNELS 3 Zrotation Yrotation Xrotation
			JOINT Spine1
			{
				OFFSET 0.000000 12.024086 0.248766
				CHANNELS 3 Zrotation Yrotation Xrotation
				JOINT Spine2
				{
					OFFSET -0.000000 11.503036 -0.491240
					CHANNELS 3 Zrotation Yrotation Xrotation
					JOINT Neck_virtual
					{
						OFFSET 0.000000 0.000000 0.000000
						CHANNELS 3 Zrotation Yrotation Xrotation
						JOINT Neck
						{
							OFFSET 0.000000 18.430687 -3.123054
							CHANNELS 3 Zrotation Yrotation Xrotation
							JOINT Head
							{
								OFFSET -0.000000 9.051071 1.034021
								CHANNELS 3 Zrotation Yrotation Xrotation
								End Site
								{
									OFFSET 0.000000 0.000000 0.000000
								}
							}
						}
					}
					JOINT LeftShoulder_virtual
					{
						OFFSET 0.000000 0.000000 0.000000
						CHANNELS 3 Zrotation Yrotation Xrotation
						JOINT LeftShoulder
						{
							OFFSET 6.197824 13.665230 -4.064723
							CHANNELS 3 Zrotation Yrotation Xrotation
							JOINT LeftArm
							{
								OFFSET 7.778132 -0.187073 -1.709282
								CHANNELS 3 Zrotation Yrotation Xrotation
								JOINT LeftForeArm
								{
									OFFSET 21.954697 0.000000 -2.041093
									CHANNELS 3 Zrotation Yrotation Xrotation
									JOINT LeftHand
									{
										OFFSET 22.992908 0.000000 -0.870901
										CHANNELS 3 Zrotation Yrotation Xrotation
										End Site
										{
											OFFSET 0.000000 0.000000 0.000000
										}
									}
								}
							}
						}
					}
					JOINT RightShoulder_virtual
					{
						OFFSET 0.000000 0.000000 0.000000
						CHANNELS 3 Zrotation Yrotation Xrotation
						JOINT RightShoulder
						{
							OFFSET -6.197824 13.665230 -4.064723
							CHANNELS 3 Zrotation Yrotation Xrotation
							JOINT RightArm
							{
								OFFSET -7.778132 -0.187073 -1.709282
								CHANNELS 3 Zrotation Yrotation Xrotation
								JOINT RightForeArm
								{
									OFFSET -21.954697 0.000000 -2.041093
									CHANNELS 3 Zrotation Yrotation Xrotation
									JOINT RightHand
									{
										OFFSET -22.992908 0.000000 -0.870901
										CHANNELS 3 Zrotation Yrotation Xrotation
										End Site
										{
											OFFSET 0.000000 0.000000 0.000000
										}
									}
								}
							}
						}
					}
				}
			}
		}
	}
}
MOTION
Frames: 11
Frame Time: 0.033333
-4.526062 81.514633 49.732449 -179.905912 18.814396 -179.970676 -4.514971 -1.101431 9.505795 0.001045 6.965205 -27.240034 6.183753 3.327326 31.255902 1.186306 -12.787910 -8.737545 0.000000 0.000000 0.000000 -0.333732 -1.427803 7.686196 -3.356499 6.326158 -23.748378 -2.118793 4.051489 29.697984 8.539430 6.657809 -8.415088 0.000000 0.000000 0.000000 0.045761 1.377607 -2.207937 0.247124 -1.611275 -4.427952 -0.878108 -2.317186 8.705455 -0.030899 -0.046558 0.012175 -1.248908 -0.914740 9.330858 2.555324 0.282144 -5.035062 0.000000 0.000000 0.000000 0.628204 -0.471212 6.964392 -7.311118 0.868299 2.082693 -63.184434 -2.235106 17.100084 2.529946 -42.247172 14.140169 0.000000 0.000000 0.000000 -3.701158 1.080466 6.035442 26.656369 0.970972 3.548165 51.487557 5.597436 15.868881 -4.239592 29.207043 -5.576418 0.000000 0.000000 0.000000 
-5.041000 81.481422 49.965511 -179.839058 19.218771 -179.949188 -4.697746 -0.733961 9.286654 -0.614189 7.470639 -27.200151 6.066957 3.686381 31.413290 1.094415 -13.012058 -9.264627 0.000000 0.000000 0.000000 -0.420477 -0.949581 7.593883 -3.610443 6.382716 -24.292596 -2.279853 3.937901 30.122534 8.397134 6.315300 -8.479454 0.000000 0.000000 0.000000 0.086396 1.566494 -2.129482 0.367331 -1.702889 -4.321014 -0.863175 -2.288885 8.716514 -0.037130 -0.041566 -0.007391 -1.240664 -0.926570 9.386994 2.560273 0.253457 -5.026387 0.000000 0.000000 0.000000 0.648864 -0.407450 6.997143 -7.582446 0.888240 2.066635 -63.217533 -1.885256 17.357964 2.595045 -42.181575 14.058276 0.000000 0.000000 0.000000 -3.700113 1.097969 6.056531 26.543913 0.946064 3.543992 51.121299 5.886923 15.340830 -4.304319 29.468236 -5.550805 0.000000 0.000000 0.000000 
-5.669034 81.409149 50.303581 -179.850779 20.032714 -179.935951 -4.671238 -0.266162 8.949886 -1.016119 7.246440 -27.148737 6.279413 3.765941 31.096045 1.237373 -12.634453 -9.078349 0.000000 0.000000 0.000000 -0.547169 -0.479337 7.417504 -3.964647 6.161668 -25.071410 -2.079191 4.124381 30.690161 8.931447 6.581525 -7.775666 0.000000 0.000000 0.000000 0.071669 1.911400 -2.029493 0.513366 -1.794471 -4.148132 -0.865072 -2.185382 8.748385 -0.052146 -0.000420 0.007107 -1.256810 -0.848303 9.447082 2.624793 0.137426 -4.990313 0.000000 0.000000 0.000000 0.601111 -0.427410 7.049669 -7.807744 0.576592 1.952420 -63.199372 -1.687734 17.400925 2.747279 -41.742011 13.708964 0.000000 0.000000 0.000000 -3.793283 1.122320 5.997413 26.433285 0.879005 3.475199 50.790229 5.864114 15.035558 -4.582144 30.318096 -5.486193 0.000000 0.000000 0.000000 
-6.262653 81.353195 50.665394 -179.888577 21.177913 -179.957248 -4.710588 0.235760 8.609904 -1.535451 7.004117 -27.033919 6.544509 3.989887 30.682760 1.296801 -12.201391 -8.880844 0.000000 0.000000 0.000000 -0.702374 0.264262 7.156571 -4.215778 5.507211 -25.764242 -1.914017 4.177790 31.284828 9.768957 7.059269 -6.991601 0.000000 0.000000 0.000000 -0.025734 2.314879 -1.939735 0.677802 -2.017386 -3.940176 -0.930326 -2.114050 8.841051 -0.012086 -0.036747 -0.023319 -1.272498 -0.835025 9.555963 2.653863 -0.023399 -4.914420 0.000000 0.000000 0.000000 0.565961 -0.250378 7.129830 -8.132297 0.208427 1.848681 -62.792634 -1.609631 17.068713 3.042074 -40.976518 13.025593 0.000000 0.000000 0.000000 -3.867955 1.355039 6.056169 26.204412 0.794781 3.282482 50.783672 5.541633 14.994494 -5.013645 31.354735 -5.372521 0.000000 0.000000 0.000000 
-6.725893 81.326439 51.016510 -179.937973 22.558322 179.915516 -4.688519 0.872261 8.431888 -1.939305 6.763652 -26.922400 6.956003 4.313964 30.288412 1.294934 -11.684680 -8.739203 0.000000 0.000000 0.000000 -0.643596 1.036585 7.015649 -4.475754 4.693225 -26.600491 -1.778552 4.456154 32.017830 10.445185 7.463582 -6.031057 0.000000 0.000000 0.000000 -0.217171 2.894721 -1.856051 0.702978 -2.306989 -3.628201 -0.989922 -1.976284 8.929751 0.012824 -0.015182 -0.001776 -1.268075 -0.637953 9.631961 2.744393 -0.315992 -4.803452 0.000000 0.000000 0.000000 0.531160 -0.115179 7.152291 -8.240147 -0.407092 1.667695 -62.048963 -1.733034 16.210836 3.295103 -39.866161 12.323343 0.000000 0.000000 0.000000 -3.889420 1.410449 6.132334 26.033879 0.718091 2.999452 51.137036 4.852692 15.436376 -5.431706 32.416652 -5.127973 0.000000 0.000000 0.000000 
-7.028214 81.331017 51.293625 179.948792 23.865501 179.942454 -4.728270 1.542401 8.166073 -2.246881 6.501140 -26.771172 7.309768 4.772536 29.827296 1.221370 -11.098007 -8.494117 0.000000 0.000000 0.000000 -0.820569 2.022171 6.846971 -4.419790 4.030150 -27.366140 -1.738321 4.585138 32.610001 11.002706 7.681802 -5.112601 0.000000 0.000000 0.000000 -0.622401 3.526351 -2.017411 0.551171 -2.716898 -3.444669 -0.988011 -1.853846 9.069177 0.032331 -0.022812 0.018728 -1.261327 -0.497761 9.807550 2.861305 -0.488425 -4.684106 0.000000 0.000000 0.000000 0.518717 -0.032530 7.239288 -8.125868 -1.189760 1.545785 -60.943845 -1.955992 14.805593 3.642563 -38.433857 11.442630 0.000000 0.000000 0.000000 -3.946816 1.543242 6.253266 25.947902 0.510299 2.719271 51.902123 3.733173 16.376207 -6.034341 33.355123 -4.949246 0.000000 0.000000 0.000000 
-7.212667 81.359367 51.467220 179.771453 25.087326 179.841217 -4.860422 2.215834 7.893429 -2.469621 6.372581 -26.464664 7.589991 4.880199 29.433235 1.049130 -10.587978 -8.273456 0.000000 0.000000 0.000000 -0.958348 2.917607 6.578253 -4.296478 3.489382 -27.994398 -1.805814 4.748420 33.555200 11.366173 7.723470 -4.198206 0.000000 0.000000 0.000000 -1.171931 4.154644 -2.187056 0.273879 -3.169198 -3.191960 -1.004918 -1.703733 9.210556 -0.001977 -0.025474 0.072840 -1.186709 -0.241566 9.977008 3.075264 -0.814175 -4.573446 0.000000 0.000000 0.000000 0.557686 0.140937 7.381575 -7.792386 -2.023617 1.309555 -59.646287 -2.409658 12.989614 3.908061 -36.830047 10.580871 0.000000 0.000000 0.000000 -3.912882 1.682837 6.391893 26.022915 0.222652 2.344780 52.895000 2.291256 17.533932 -6.644029 34.069981 -4.680120 0.000000 0.000000 0.000000 
-7.249067 81.413300 51.543163 179.887170 26.193412 179.843799 -5.167139 2.788631 7.574981 -2.152536 6.549290 -26.072840 8.037391 5.091577 29.252348 0.515974 -10.489594 -8.290788 0.000000 0.000000 0.000000 -1.123631 3.563644 6.466035 -3.689409 2.971826 -28.831994 -1.845764 4.670766 34.616604 11.361308 7.430594 -2.995899 0.000000 0.000000 0.000000 -1.461836 4.625030 -2.401725 -0.169262 -3.700752 -2.928081 -0.987266 -1.634488 9.454402 0.004517 -0.115854 0.015000 -1.156420 -0.041989 10.258702 3.257939 -1.108108 -4.406826 0.000000 0.000000 0.000000 0.540504 0.394156 7.535841 -7.422344 -2.849173 1.050859 -58.428642 -2.936323 10.731082 4.178647 -35.036333 9.768895 0.000000 0.000000 0.000000 -3.891308 1.885808 6.712399 26.088430 0.076688 1.918358 53.961575 0.558369 18.828193 -7.357775 34.467259 -4.570981 0.000000 0.000000 0.000000 
-7.166441 81.464966 51.539562 179.927427 27.193041 179.923807 -5.355409 3.152068 7.220709 -1.886979 6.591155 -25.686284 8.329453 5.256996 29.101018 0.182075 -10.243351 -8.337149 0.000000 0.000000 0.000000 -1.377783 3.736071 6.253616 -2.838672 2.213577 -29.824663 -1.910918 4.275123 35.862216 11.011669 6.951918 -1.551932 0.000000 0.000000 0.000000 -1.801623 5.083098 -2.697590 -0.683412 -4.028336 -2.750261 -0.928044 -1.409292 9.662650 0.034819 -0.189812 0.003476 -1.145935 -0.011068 10.546802 3.512161 -1.439991 -4.272340 0.000000 0.000000 0.000000 0.487498 0.441472 7.819928 -6.980134 -3.846385 0.800003 -57.319193 -3.801495 8.376631 4.605647 -33.302653 8.847060 0.000000 0.000000 0.000000 -3.915346 1.987007 6.930980 26.247382 -0.385512 1.672185 54.989269 -1.211718 19.743960 -7.998795 34.556707 -4.473271 0.000000 0.000000 0.000000 
-7.018098 81.501175 51.440693 179.938820 28.297160 179.934640 -5.612074 3.296928 6.971801 -1.417462 6.580902 -25.259530 8.613650 5.781016 29.167029 0.044517 -9.899496 -8.633745 0.000000 0.000000 0.000000 -1.587385 3.753777 5.987546 -1.955600 1.241672 -30.711293 -1.815303 3.993960 36.859956 10.383442 6.546419 0.607573 0.000000 0.000000 0.000000 -2.063961 5.186914 -2.893010 -1.237935 -4.330344 -2.572322 -0.900323 -1.280593 9.862819 -0.010564 -0.004387 -0.001976 -1.078187 0.122446 10.786787 3.733309 -1.650973 -4.145544 0.000000 0.000000 0.000000 0.515454 0.560746 7.970488 -6.581955 -4.631538 0.604977 -56.534941 -4.684618 5.609504 4.759944 -32.007400 8.194986 0.000000 0.000000 0.000000 -3.846733 2.169548 7.187765 26.306769 -0.555859 1.359306 55.807044 -3.016215 20.598348 -8.592801 34.299793 -4.354243 0.000000 0.000000 0.000000 
-6.814009 81.528458 51.252167 179.980402 29.174221 179.914628 -5.819165 3.204545 6.867982 -0.962121 6.605614 -24.876847 8.793988 6.247158 29.365377 -0.020875 -9.637863 -8.958742 0.000000 0.000000 0.000000 -1.818792 3.681168 5.741530 -0.999332 -0.188488 -31.335549 -1.675616 3.733412 37.438237 9.801621 6.509700 2.019036 0.000000 0.000000 0.000000 -2.206061 5.114821 -2.966077 -1.740412 -4.487857 -2.444425 -0.877416 -1.191052 10.045482 -0.012486 -0.010727 -0.035729 -1.052378 0.251334 10.974819 3.930761 -1.832084 -4.040643 0.000000 0.000000 0.000000 0.515185 0.765937 8.156193 -6.291133 -5.259725 0.473619 -55.976716 -5.478562 3.178974 4.978854 -31.245056 7.641176 0.000000 0.000000 0.000000 -3.816274 2.373320 7.449191 26.305248 -0.600070 1.170507 56.436863 -4.621790 21.361423 -9.203402 33.712359 -4.345601 0.000000 0.000000 0.000000 
